<svg width="705" height="320" viewBox="0 0 705 320" fill="none" xmlns="http://www.w3.org/2000/svg">
<g clip-path="url(#clip0_1713_4030)">
<path d="M5 0H705V319.321H5V0Z" fill="#32ADE6"/>
<path d="M705 154.904L688.375 148.314C671.677 141.792 638.427 128.611 605.104 117.876C571.781 107.142 538.531 98.7172 505.208 103.949C471.885 109.18 438.635 127.932 405.167 139.957C371.771 151.983 338.229 157.146 304.833 153.206C271.365 149.265 238.115 136.085 204.792 127.184C171.469 118.216 138.219 113.46 104.896 111.762C71.5729 110.063 38.3229 111.422 21.625 112.102L4.99998 112.781V320H21.625C38.3229 320 71.5729 320 104.896 320C138.219 320 171.469 320 204.792 320C238.115 320 271.365 320 304.833 320C338.229 320 371.771 320 405.167 320C438.635 320 471.885 320 505.208 320C538.531 320 571.781 320 605.104 320C638.427 320 671.677 320 688.375 320H705V154.904Z" fill="#AF52DE"/>
<path d="M705 245.265L688.375 234.938C671.677 224.679 638.427 204.025 605.104 206.675C571.781 209.257 538.531 235.074 505.208 240.306C471.885 245.469 438.635 230.114 405.167 223.388C371.771 216.73 338.229 218.768 304.833 224.068C271.365 229.435 238.115 237.996 204.792 241.664C171.469 245.265 138.219 243.906 104.896 247.847C71.5729 251.855 38.3229 261.095 21.625 265.783L4.99998 270.403V320H21.625C38.3229 320 71.5729 320 104.896 320C138.219 320 171.469 320 204.792 320C238.115 320 271.365 320 304.833 320C338.229 320 371.771 320 405.167 320C438.635 320 471.885 320 505.208 320C538.531 320 571.781 320 605.104 320C638.427 320 671.677 320 688.375 320H705V245.265Z" fill="#5856D6"/>
</g>
<defs>
<clipPath id="clip0_1713_4030">
<rect width="700" height="320" rx="20" transform="matrix(-1 0 0 1 705 0)" fill="white"/>
</clipPath>
</defs>
</svg>
